<svg width="656" height="67" viewBox="0 0 656 67" fill="none" xmlns="http://www.w3.org/2000/svg">
<path d="M42.2162 64.5553C42.3595 64.6936 42.4583 64.8715 42.4998 65.0663C42.5414 65.2611 42.5238 65.4639 42.4494 65.6487C42.375 65.8334 42.2472 65.9918 42.0822 66.1034C41.9172 66.215 41.7227 66.2749 41.5235 66.2753L1.06434 66.3148C0.79905 66.315 0.54453 66.2099 0.35676 66.0225C0.16899 65.8351 0.0633543 65.5807 0.0630955 65.3155L4.09636e-05 0.680662C3.00994e-05 0.669526 0.00444682 0.658844 0.0123139 0.650962C0.0201809 0.64308 0.030849 0.638642 0.0419856 0.638631C0.0474094 0.638604 0.0527852 0.639651 0.0578053 0.641705C0.0628253 0.643759 0.0673919 0.646782 0.0712416 0.650602L11.4613 11.6364L12.9174 13.0319L21.1447 20.897C21.2419 20.9902 21.3193 21.102 21.3722 21.2257C21.4251 21.3495 21.4524 21.4827 21.4525 21.6173C21.4527 21.7519 21.4256 21.8852 21.3729 22.0091C21.3203 22.1329 21.2431 22.2449 21.1461 22.3382L14.2834 28.9891C14.1145 29.1528 13.8892 29.2454 13.654 29.2476C13.4188 29.2497 13.1918 29.1614 13.0199 29.0008C12.8894 28.8789 12.7261 28.7978 12.55 28.7675C12.374 28.7371 12.1929 28.7589 12.0291 28.8301C11.8653 28.9014 11.7259 29.0189 11.628 29.1684C11.5301 29.3178 11.4781 29.4925 11.4782 29.6712L11.5018 53.8545C11.5019 53.9858 11.5279 54.1158 11.5783 54.2371C11.6287 54.3584 11.7025 54.4685 11.7955 54.5612C11.8885 54.654 11.9988 54.7275 12.1202 54.7775C12.2416 54.8276 12.3717 54.8532 12.503 54.853L31.7211 54.8343C31.9801 54.8341 32.2291 54.9344 32.4157 55.114L42.2162 64.5553Z" fill="#FFFEFE"/>
<path d="M65.9062 64.1026C66.7153 64.8831 66.164 66.2521 65.04 66.2532L52.1474 66.2658C51.8237 66.2661 51.5125 66.1406 51.2796 65.9157L39.7694 54.8295L24.454 40.0729L17.146 33.0265C17.0251 32.9099 16.9289 32.7702 16.8631 32.6157C16.7973 32.4612 16.7633 32.295 16.7632 32.127C16.763 31.9591 16.7967 31.7928 16.8621 31.6382C16.9276 31.4835 17.0236 31.3437 17.1443 31.2269L24.4534 24.1519L48.4373 0.946941C48.6701 0.721703 48.9813 0.595598 49.3053 0.595177L62.1828 0.582614C63.3075 0.581517 63.8615 1.9494 63.0532 2.73151L33.6225 31.1966C33.5016 31.3132 33.4054 31.4531 33.3398 31.6077C33.2742 31.7624 33.2405 31.9287 33.2407 32.0967C33.2408 32.2647 33.2749 32.431 33.3408 32.5855C33.4067 32.7401 33.5031 32.8797 33.6242 32.9961L56.2611 54.8134L65.9062 64.1026Z" fill="#FFFEFE"/>
<path d="M89.1392 54.6968L89.0977 12.0713L97.3442 12.0632L97.3857 54.6887L89.1392 54.6968ZM95.2038 54.6909L95.1966 47.3537L116.903 47.3325L116.91 54.6697L95.2038 54.6909Z" fill="#FFFEFE"/>
<path d="M135.646 55.2579C132.735 55.2608 130.198 54.6979 128.035 53.5692C125.938 52.5231 124.182 50.902 122.972 48.8951C121.762 46.8883 121.148 44.5786 121.202 42.2359C121.168 39.7528 121.896 37.3191 123.288 35.2622C124.679 33.1999 126.749 31.5204 129.497 30.2235L133.068 35.3128C131.809 35.8658 130.729 36.7591 129.95 37.8924C129.245 38.9658 128.893 40.29 128.893 41.865C128.869 42.9851 129.164 44.0888 129.745 45.0469C130.332 45.9741 131.175 46.7112 132.172 47.1686C133.312 47.6907 134.556 47.9485 135.81 47.9228C137.549 47.9211 139.004 47.5557 140.175 46.8265C141.313 46.1302 142.269 45.1727 142.963 44.0333L148.304 49.8497C147.403 50.9037 146.339 51.8075 145.153 52.5273C143.789 53.3698 142.322 54.0334 140.789 54.5018C139.123 55.0135 137.389 55.2685 135.646 55.2579ZM149.894 54.6378L129.985 32.8285C128.489 31.1732 127.373 29.5882 126.637 28.0733C125.898 26.5101 125.524 24.7996 125.542 23.0708C125.521 20.9992 126.075 18.9624 127.144 17.1874C128.217 15.4081 129.743 13.9453 131.566 12.9484C133.444 11.8961 135.598 11.3687 138.028 11.3663C139.765 11.3358 141.493 11.632 143.121 12.2395C144.54 12.7792 145.862 13.5457 147.035 14.5091C148.076 15.358 148.986 16.3551 149.737 17.4685L144.284 22.5688C143.537 21.5009 142.614 20.5687 141.553 19.8122C140.551 19.1367 139.364 18.7882 138.155 18.8148C136.893 18.7763 135.662 19.2098 134.702 20.0307C134.257 20.3992 133.901 20.8631 133.66 21.3881C133.419 21.9131 133.299 22.4856 133.31 23.0632C133.279 24.0731 133.532 25.0714 134.041 25.9443C134.645 26.89 135.316 27.7906 136.05 28.6391L159.299 54.6286L149.894 54.6378Z" fill="#FFFEFE"/>
<path d="M162.084 54.6255L162.042 12L170.288 11.992L170.33 54.6174L162.084 54.6255ZM187.853 54.6003L169.332 32.3662L187.321 11.9753L197.629 11.9653L177.592 34.1166L177.588 30.2965L198.339 54.5901L187.853 54.6003Z" fill="#FFFEFE"/>
<path d="M213.926 54.5758L213.885 11.9503L222.131 11.9423L222.173 54.5678L213.926 54.5758ZM219.565 54.5703L219.558 47.2331L230.412 47.2225C233.16 47.2198 235.564 46.6417 237.625 45.4882C239.665 44.3545 241.337 42.6587 242.441 40.6025C243.591 38.5003 244.164 36.0139 244.161 33.1433C244.158 30.3528 243.57 27.9181 242.396 25.839C241.264 23.8001 239.582 22.1205 237.541 20.9917C235.479 19.8407 233.094 19.2672 230.385 19.2714L219.348 19.2821L219.341 11.945L230.498 11.9341C233.491 11.9025 236.464 12.4341 239.261 13.5013C241.878 14.5055 244.27 16.0181 246.299 17.952C248.303 19.8636 249.897 22.1617 250.986 24.7073C253.215 30.1565 253.221 36.2616 251.003 41.7152C249.931 44.2684 248.356 46.5796 246.372 48.5108C244.362 50.4533 241.982 51.9715 239.373 52.9752C236.601 54.0438 233.653 54.5813 230.682 54.5595L219.565 54.5703Z" fill="#FFFEFE"/>
<path d="M259.218 54.5308L259.177 11.9053L267.423 11.8972L267.465 54.5227L259.218 54.5308ZM265.248 19.1763L265.241 11.8994L288.525 11.8766L288.532 19.1536L265.248 19.1763ZM265.265 36.2755L265.258 29.2415L286.721 29.2205L286.728 36.2546L265.265 36.2755ZM265.283 54.5248L265.276 47.2501L288.863 47.2271L288.87 54.5018L265.283 54.5248Z" fill="#FFFEFE"/>
<path d="M308.514 54.4821L291.677 11.873L300.592 11.8643L313.602 46.3532L310.147 46.3566L323.21 11.8423L332.002 11.8337L315.065 54.4758L308.514 54.4821Z" fill="#FFFEFE"/>
<path d="M337.619 54.4536L337.577 11.8281L345.824 11.8201L345.865 54.4456L337.619 54.4536ZM343.649 19.0992L343.642 11.8222L366.926 11.7995L366.933 19.0765L343.649 19.0992ZM343.665 36.1984L343.659 29.1643L365.124 29.1434L365.131 36.1774L343.665 36.1984ZM343.683 54.4477L343.676 47.1729L367.263 47.1499L367.27 54.4247L343.683 54.4477Z" fill="#FFFEFE"/>
<path d="M374.122 54.4185L374.08 11.793L382.327 11.7849L382.368 54.4104L374.122 54.4185ZM380.186 54.4125L380.179 47.0753L401.885 47.0542L401.892 54.3914L380.186 54.4125Z" fill="#FFFEFE"/>
<path d="M424.997 55.0376C422.015 55.0634 419.058 54.4886 416.303 53.3477C410.989 51.1518 406.764 46.9361 404.557 41.6268C402.3 36.1112 402.284 29.9327 404.511 24.4051C406.7 19.1288 410.894 14.9375 416.172 12.7527C421.758 10.5245 427.984 10.5184 433.574 12.7358C436.196 13.8161 438.577 15.4045 440.582 17.4094C443.696 20.4799 445.824 24.4095 446.693 28.6956C447.562 32.9818 447.133 37.4297 445.461 41.4708C443.788 45.5118 440.949 48.9623 437.305 51.381C433.661 53.7997 429.379 55.0766 425.006 55.0487L424.997 55.0376ZM424.867 47.3372C427.616 47.3346 430 46.7253 432.019 45.5094C434.037 44.2986 435.682 42.5559 436.775 40.4721C437.926 38.3299 438.499 35.8234 438.495 32.9527C438.517 30.9897 438.187 29.0387 437.52 27.1923C436.907 25.5125 435.956 23.976 434.727 22.6772C433.514 21.4063 432.045 20.4059 430.419 19.7417C428.647 19.0353 426.753 18.6864 424.846 18.7152C422.171 18.7178 419.817 19.3145 417.784 20.5051C415.75 21.6916 414.092 23.4274 413 25.5134C411.85 27.6571 411.276 30.1435 411.277 32.9726C411.256 34.9775 411.597 36.9697 412.284 38.8534C412.897 40.5424 413.848 42.0886 415.079 43.3974C416.289 44.6635 417.758 45.6547 419.385 46.3039C421.127 47.0046 422.99 47.3558 424.867 47.3372Z" fill="#FFFEFE"/>
<path d="M453.558 54.3413L453.517 11.7158L461.763 11.7078L461.805 54.3333L453.558 54.3413ZM459.607 38.511L459.601 31.7801L469.483 31.7704C470.701 31.7861 471.906 31.5147 472.999 30.978C474.029 30.4735 474.891 29.6834 475.484 28.7022C476.09 27.712 476.392 26.509 476.39 25.0929C476.42 23.8396 476.104 22.6023 475.477 21.5166C474.888 20.524 474.023 19.7242 472.988 19.2145C471.893 18.6817 470.688 18.4134 469.47 18.4312L459.588 18.4408L459.581 11.7099L470.313 11.6994C473.02 11.6968 475.456 12.2397 477.62 13.3282C479.728 14.3665 481.505 15.9716 482.751 17.9635C484.006 19.9608 484.635 22.3376 484.639 25.0938C484.643 27.8501 484.018 30.2281 482.765 32.2278C481.522 34.2214 479.749 35.8293 477.643 36.8709C475.482 37.9651 473.048 38.5135 470.339 38.5161L459.607 38.511Z" fill="#FFFEFE"/>
<path d="M490.482 54.3052L490.44 11.6797L496.26 11.674L513.569 39.3074L510.226 39.3107L527.418 11.6436L533.24 11.6379L533.281 54.2634L525.102 54.2714L525.074 25.7741L526.65 26.2562L514.665 45.5514L509.093 45.5568L497.068 26.2851L498.705 25.7999L498.733 54.2971L490.482 54.3052Z" fill="#FFFEFE"/>
<path d="M542.021 54.2554L541.979 11.6299L550.226 11.6218L550.268 54.2473L542.021 54.2554ZM548.051 18.9009L548.044 11.624L571.326 11.6013L571.333 18.8782L548.051 18.9009ZM548.068 36.0001L548.061 28.9661L569.524 28.9452L569.531 35.9792L548.068 36.0001ZM548.086 54.2495L548.079 46.9747L571.677 46.9517L571.684 54.2264L548.086 54.2495Z" fill="#FFFEFE"/>
<path d="M578.523 54.2192L578.481 11.5938L584.241 11.5881L586.736 19.8322L586.77 54.2112L578.523 54.2192ZM607.99 54.1905L582.675 21.4721L584.241 11.5881L609.563 44.3065L607.99 54.1905ZM607.99 54.1905L605.617 46.1892L605.583 11.5673L613.892 11.5592L613.934 54.1847L607.99 54.1905Z" fill="#FFFEFE"/>
<path d="M619.536 18.8908L619.529 11.5537L654.998 11.5191L655.005 18.8562L619.536 18.8908ZM633.153 54.1659L633.112 12.4498L641.421 12.4417L641.462 54.1578L633.153 54.1659Z" fill="#FFFEFE"/>
</svg>
