<svg width="34" height="34" viewBox="0 0 34 34" fill="none" xmlns="http://www.w3.org/2000/svg">
<path d="M21.6408 32.976C21.7144 33.0471 21.765 33.1385 21.7862 33.2385C21.8074 33.3385 21.7983 33.4426 21.76 33.5374C21.7217 33.6323 21.656 33.7135 21.5713 33.7707C21.4865 33.8279 21.3866 33.8586 21.2844 33.8587H0.513515C0.377322 33.8587 0.24671 33.8046 0.150407 33.7083C0.0541037 33.612 0 33.4813 0 33.3451V0.162888C0 0.15717 0.0022728 0.151689 0.0063155 0.147646C0.0103582 0.143604 0.0158372 0.141331 0.0215545 0.141331C0.024339 0.14132 0.0270983 0.14186 0.0296744 0.142917C0.0322505 0.143974 0.0345935 0.145528 0.0365679 0.147491L5.87849 5.79309L6.62529 6.51025L10.8451 10.5522C10.8949 10.6 10.9346 10.6575 10.9617 10.721C10.9888 10.7846 11.0028 10.853 11.0028 10.9221C11.0028 10.9912 10.9888 11.0596 10.9617 11.1232C10.9346 11.1867 10.8949 11.2442 10.8451 11.292L7.31857 14.703C7.23181 14.787 7.11608 14.8344 6.99534 14.8354C6.8746 14.8364 6.75809 14.7909 6.66994 14.7084C6.60299 14.6458 6.51917 14.604 6.42882 14.5884C6.33846 14.5727 6.2455 14.5838 6.16137 14.6203C6.07723 14.6568 6.0056 14.7171 5.95527 14.7937C5.90495 14.8704 5.87813 14.9601 5.87811 15.0518V27.467C5.87811 27.5345 5.89139 27.6012 5.9172 27.6635C5.94302 27.7258 5.98085 27.7824 6.02854 27.83C6.07623 27.8777 6.13284 27.9155 6.19514 27.9412C6.25744 27.967 6.32421 27.9802 6.39163 27.9802H16.2578C16.3907 27.9802 16.5185 28.0318 16.6142 28.1241L21.6408 32.976Z" fill="url(#paint0_linear_200_3222)"/>
<path d="M33.8028 32.755C34.2177 33.1561 33.934 33.8587 33.357 33.8587H26.7383C26.572 33.8587 26.4123 33.7941 26.2929 33.6785L20.3894 27.9813L12.5342 20.3979L8.78596 16.7767C8.72393 16.7168 8.6746 16.6451 8.6409 16.5657C8.60721 16.4864 8.58984 16.401 8.58984 16.3148C8.58984 16.2286 8.60721 16.1432 8.6409 16.0639C8.6746 15.9845 8.72393 15.9127 8.78596 15.8529L12.5419 12.2244L24.8663 0.323407C24.9859 0.207891 25.1457 0.143308 25.312 0.143253H31.9231C32.5005 0.143253 32.7842 0.845777 32.3688 1.24689L17.2455 15.8455C17.1834 15.9054 17.134 15.9771 17.1002 16.0565C17.0665 16.1359 17.0491 16.2212 17.0491 16.3075C17.0491 16.3937 17.0665 16.4791 17.1002 16.5585C17.134 16.6378 17.1834 16.7096 17.2455 16.7694L28.8558 27.9813L33.8028 32.755Z" fill="url(#paint1_linear_200_3222)"/>
<defs>
<linearGradient id="paint0_linear_200_3222" x1="4.39763" y1="1.84019" x2="31.1237" y2="24.2474" gradientUnits="userSpaceOnUse">
<stop stop-color="#245AFD"/>
<stop offset="1" stop-color="#0DF4C7"/>
</linearGradient>
<linearGradient id="paint1_linear_200_3222" x1="13.7163" y1="1.84202" x2="40.85" y2="28.3628" gradientUnits="userSpaceOnUse">
<stop stop-color="#245AFD"/>
<stop offset="1" stop-color="#0DF4C7"/>
</linearGradient>
</defs>
</svg>
