<svg width="18" height="19" viewBox="0 0 18 19" fill="none" xmlns="http://www.w3.org/2000/svg">
<path d="M7.47806 4.68275L7.92975 5.93713C8.4315 7.32932 9.52781 8.42563 10.92 8.92738L12.1744 9.37907C12.2874 9.42013 12.2874 9.58044 12.1744 9.62094L10.92 10.0726C9.52781 10.5744 8.4315 11.6707 7.92975 13.0629L7.47806 14.3173C7.437 14.4303 7.27669 14.4303 7.23619 14.3173L6.7845 13.0629C6.28275 11.6707 5.18644 10.5744 3.79425 10.0726L2.53988 9.62094C2.42681 9.57988 2.42681 9.41957 2.53988 9.37907L3.79425 8.92738C5.18644 8.42563 6.28275 7.32932 6.7845 5.93713L7.23619 4.68275C7.27669 4.56913 7.437 4.56913 7.47806 4.68275Z" fill="white"/>
<path d="M13.1245 1.66832L13.3534 2.30338C13.6077 3.00819 14.1628 3.56338 14.8677 3.81763L15.5027 4.04657C15.5601 4.06738 15.5601 4.14838 15.5027 4.16919L14.8677 4.39813C14.1628 4.65238 13.6077 5.20757 13.3534 5.91238L13.1245 6.54744C13.1037 6.60482 13.0227 6.60482 13.0018 6.54744L12.7729 5.91238C12.5187 5.20757 11.9635 4.65238 11.2587 4.39813L10.6236 4.16919C10.5662 4.14838 10.5662 4.06738 10.6236 4.04657L11.2587 3.81763C11.9635 3.56338 12.5187 3.00819 12.7729 2.30338L13.0018 1.66832C13.0227 1.61038 13.1042 1.61038 13.1245 1.66832Z" fill="white"/>
<path d="M13.1245 12.4531L13.3534 13.0882C13.6077 13.793 14.1628 14.3482 14.8677 14.6024L15.5027 14.8314C15.5601 14.8522 15.5601 14.9332 15.5027 14.954L14.8677 15.1829C14.1628 15.4372 13.6077 15.9924 13.3534 16.6972L13.1245 17.3323C13.1037 17.3896 13.0227 17.3896 13.0018 17.3323L12.7729 16.6972C12.5187 15.9924 11.9635 15.4372 11.2587 15.1829L10.6236 14.954C10.5662 14.9332 10.5662 14.8522 10.6236 14.8314L11.2587 14.6024C11.9635 14.3482 12.5187 13.793 12.7729 13.0882L13.0018 12.4531C13.0227 12.3958 13.1042 12.3958 13.1245 12.4531Z" fill="white"/>
</svg>
